{"title":"My Cousin Rachel (1952)  Richard Burton, Olivia De Havilland  En","uid":5308715,"size":816769174,"categoryP":"video","categoryS":"movies","magnet":"?xt=urn:btih:24103543a59e5c9c0040aa03d6bd8e27f9fc9f7f&amp;dn=My+Cousin+Rachel+%281952%29++Richard+Burton%2C+Olivia+De+Havilland++En&amp;tr=udp%3A%2F%2Ftracker.openbittorrent.com%3A80&amp;tr=udp%3A%2F%2Fopen.demonii.com%3A1337&amp;tr=udp%3A%2F%2Ftracker.coppersurfer.tk%3A6969&amp;tr=udp%3A%2F%2Fexodus.desync.com%3A6969","seeders":1,"leechers":1,"uploader":"johnefp","files":3,"time":1264490129,"description":"Olivia de Havilland and Richard Burton star in this adaptation of Daphne du Maurier's gothic novel. In a reversal of Jane Eyre, it is the hero who arrives at the home of a mysterious woman. Rachel (de Havilland) is the widow of a Cornish man of property (John Sutton), who died in suspicious circumstances. Philip Ashley Burton is the dead man's cousin, who in probing his relative's demise immediately suspects Rachel -- and goes on suspecting her even after he falls in love with her. Going against the inheritance laws of the era, Burton turns over his cousin's estate to Rachel, but she refuses his entreaties of marriage. He soon falls ill, and it is whispered that Rachel has poisoned him.\n\n\n &lt;a href=&quot;\nhttp://www.imdb.com/title/tt0044937/&quot; rel=&quot;nofollow&quot; target=&quot;_NEW&quot;&gt;\nhttp://www.imdb.com/title/tt0044937/&lt;/a&gt;\n\n\nSubtitles:\n\n &lt;a href=&quot;\nhttp://www.opensubtitles.org/en/search/imdbid-44937/sublanguageid-all&quot; rel=&quot;nofollow&quot; target=&quot;_NEW&quot;&gt;\nhttp://www.opensubtitles.org/en/search/imdbid-44937/sublanguageid-all&lt;/a&gt;\n\n\n\nAwards:\nNominated for 4 Oscars. Another 1 win &amp; 1 nomination\n\n\n\nDirector:\nHenry Koster\n\n\n\n\n        Olivia de Havilland ...\tRachel Sangalletti Ashley\n\n\tRichard Burton\t... \tPhilip Ashley\n\tAudrey Dalton\t... \tLouise Kendall\n\tRonald Squire\t... \tNicholas 'Nick' Kendall\n\tGeorge Dolenz\t... \tGuido Rainaldi\n\n\n\nVideo #2\n      ID : 2\n      Format : VC-1\n      Format profile : MP@ML\n      Codec ID : WMV3\n      Codec ID/Info : Windows Media Video 9\n      Codec ID/Hint : WMV3\n      Duration : 1h 38mn\n      Bit rate mode : Variable\n      Bit rate : 1 000 Kbps\n      Width : 640 pixels\n      Height : 480 pixels\n      Display aspect ratio : 4/3\n      Frame rate : 25.000 fps\n      Resolution : 24 bits\n      Scan type : Progressive\n      Bits/(Pixel*Frame) : 0.130\n      Stream size : 703 MiB (90%)\n   Audio #1\n      ID : 1\n      Format : WMA2\n      Format profile : L\n      Codec ID : 161\n      Codec ID/Info : Windows Media Audio 2\n      Description of the codec : Windows Media Audio 9.2 -  96 kbps, 44 kHz, stereo 2-pass VBR\n      Duration : 1h 38mn\n      Bit rate mode : Variable\n      Bit rate : 95.7 Kbps\n      Channel(s) : 2 channels\n      Sampling rate : 44.1 KHz\n      Resolution : 16 bits\n      Stream size : 67.3 MiB (9%)\n\n\n\nPlease seed at least as much as you D/L.\n=======================================\nThanks \n\nJohn","torrent":{"xt":"urn:btih:24103543a59e5c9c0040aa03d6bd8e27f9fc9f7f","amp;dn":"My+Cousin+Rachel+%281952%29++Richard+Burton%2C+Olivia+De+Havilland++En","amp;tr":["udp%3A%2F%2Ftracker.openbittorrent.com%3A80","udp%3A%2F%2Fopen.demonii.com%3A1337","udp%3A%2F%2Ftracker.coppersurfer.tk%3A6969","udp%3A%2F%2Fexodus.desync.com%3A6969"],"infoHash":"24103543a59e5c9c0040aa03d6bd8e27f9fc9f7f","infoHashBuffer":{"type":"Buffer","data":[36,16,53,67,165,158,92,156,0,64,170,3,214,189,142,39,249,252,159,127]},"announce":[],"urlList":[]}}